<?xml version="1.0" encoding="utf-8"?>
<!-- Generator: Adobe Illustrator 21.0.0, SVG Export Plug-In . SVG Version: 6.00 Build 0)  -->
<svg version="1.1" id="Layer_1" xmlns="http://www.w3.org/2000/svg" xmlns:xlink="http://www.w3.org/1999/xlink" x="0px" y="0px"
	 viewBox="0 0 1024 1024" style="enable-background:new 0 0 1024 1024;" xml:space="preserve">
<style type="text/css">
	.st0{fill:none;stroke:#86D4F0;stroke-width:2;}
	.st1{fill:none;stroke:#8B94AA;stroke-width:2;}
	.st2{fill:none;stroke:#A6BDCD;stroke-width:2;}
	.st3{fill:#FEFFFF;}
	.st4{fill:#0EA8E1;}
	.st5{fill:#182855;}
	.st6{fill:#4D7B9A;}
</style>
<g>
	<path vector-effect="non-scaling-stroke" class="st0" d="M325.9,575.3c-0.6-2.2-0.8-5-0.8-8.4c0.3-14.8,6.9-26.6,17.7-37.4
		c3.7-3.7,8.3-8,13.8-13c0.5-0.4,0.7-1.1,0.5-1.8c-2.3-8.1,4.1-15,12.4-14.4c0.7,0.1,1.5-0.2,2-0.8c1.7-1.8,5.1-5.2,10.4-10.2
		c5-4.8,8.3-8.3,9.8-10.6c9.9-14.7,10.1-35.1-0.8-49.5c-8.5-11.2-22-15.5-34.8-9.6c-2.2,1-5.3,3.5-9.1,7.5
		c-16.1,16.5-35.9,36.3-59.4,59.5c-7.9,7.8-13.3,13.6-13.4,24.7c0,8.3,2.9,15.2,8.7,20.9c2,1.9,6.9,6.8,14.9,14.6
		c0.2,0.2,0.6,0.1,0.6-0.2c0.5-8.4,2.8-16.3,7-23.7c2.2-3.9,7.4-9.9,15.7-18.2c12.1-12,24-23.8,35.7-35.2c0.3-0.3,0.5-0.8,0.4-1.3
		c-3.1-12,13.7-18.4,20-8.8c2.5,3.8,2.7,9.8-0.3,13.6c-2.6,3.3-6.3,4.5-10.8,3.7c-0.3-0.1-0.6,0.1-0.9,0.3
		c-12.9,13.4-26.9,27.5-42.2,42.3c-9.1,8.9-13.3,20.2-12.5,33.8c0.3,5.4,0.7,8.5,4.4,12.3c4.8,4.9,8.2,8.2,10.3,10.1
		C325.4,576.2,326,575.9,325.9,575.3"/>
	<path vector-effect="non-scaling-stroke" class="st1" d="M488,441.3l0.2,90.5c0,0.1,0.1,0.2,0.2,0.2l41.2-0.1
		c25.5,0,46.1-19.7,46-43.9v-3.2c0-24.2-20.7-43.8-46.2-43.8l-41.2,0.1C488.1,441.1,488,441.2,488,441.3"/>
	<path vector-effect="non-scaling-stroke" class="st1" d="M617.8,531.6c4.2,0,7.5,0,10,0.1c0.2,0,0.4-0.2,0.4-0.4V459
		c0-0.2,0.2-0.4,0.4-0.4h27.8c0.3,0,0.6-0.3,0.6-0.6v-16.4c0-0.5-0.4-0.8-0.8-0.8c-17,0.1-29.8,0.1-38.4,0.1c-8.5,0-21.3,0-38.4-0.1
		c-0.5,0-0.8,0.4-0.8,0.8v16.4c0,0.3,0.3,0.6,0.6,0.6h27.8c0.2,0,0.4,0.2,0.4,0.4v72.3c0,0.2,0.2,0.4,0.4,0.4
		C610.3,531.7,613.7,531.6,617.8,531.6"/>
	<path vector-effect="non-scaling-stroke" class="st1" d="M723.8,531.5c0.1,0.1,0.2,0.2,0.3,0.2h23.7c0.3,0,0.5-0.3,0.3-0.6
		l-30.7-45.9c-0.1-0.1-0.1-0.3,0-0.4l28.5-43.3c0.2-0.3,0-0.6-0.3-0.6h-22.3c-0.1,0-0.3,0.1-0.3,0.2l-18.5,29
		c-0.1,0.2-0.5,0.2-0.6,0l-18.4-29c-0.1-0.1-0.2-0.2-0.3-0.2h-23.6c-0.3,0-0.5,0.3-0.3,0.6l29.3,43.7c0.1,0.1,0.1,0.3,0,0.4
		l-31.2,45.6c-0.2,0.3,0,0.6,0.3,0.6h23.6c0.1,0,0.3-0.1,0.3-0.2l19.9-31.2c0.1-0.2,0.5-0.2,0.6,0L723.8,531.5"/>
	<path vector-effect="non-scaling-stroke" class="st1" d="M409.7,447.4c2.3,13.2-0.2,25.5-7.5,36.9c-2.3,3.6-5.9,7.7-10.8,12.3
		c-4.7,4.4-8.7,8.2-12,11.4c-0.5,0.4-0.6,1.1-0.4,1.7c1.1,3.2,0.7,6.2-1.4,9.2c-2.7,4-6.6,5.5-11.7,4.6c-0.3-0.1-0.7,0-0.9,0.3
		c-2.6,2.8-6.1,6.3-10.5,10.4c-5.1,4.8-8.5,8.5-10.1,10.8c-5.6,8.3-8.1,17.8-7.6,28.4c0.5,9.5,4.1,17.6,10.7,24.4
		c8,8.2,17.4,10.7,28.2,7.5c4-1.2,7.4-3.2,10.3-6.1c8.4-8.4,31.2-31.3,68.4-68.8c8.4-8.4,9.8-20.9,4.7-31.5
		c-1.3-2.6-4.5-6.4-9.9-11.5c-1.8-1.7-5.5-5.3-10.9-10.8c-0.3-0.3-0.9-0.1-0.9,0.3c-0.7,10.1-3.7,19.1-9,27.2c-2,3-8,9.4-18,19.2
		c-15.8,15.4-26.3,25.7-31.5,30.8c-0.3,0.3-0.5,0.8-0.4,1.3c3.9,14.4-17.3,19.7-21.2,5.8c-1.7-6.1,2.4-13.5,9.1-13.7
		c1.5,0,2.5-0.1,3.1-0.2c0.3,0,0.7-0.2,0.9-0.5c12.5-12.8,26.5-26.8,42.3-42.1c10.6-10.3,15.3-25.5,12.2-39.9
		c-0.4-2.1-1.5-4.1-2.9-5.5c-2.6-2.7-6.6-6.8-12-12.2C410,447,409.6,447.1,409.7,447.4"/>
	<path vector-effect="non-scaling-stroke" class="st2" d="M485.7,576.7c-0.2,0.4-0.2,0.9,0.2,1.1c5.6,4.3,11.8,5.3,18.5,3.1
		c6.5-2.2,8.5-11.8,1.5-15.1c-1.8-0.8-5-1.8-9.8-2.9c-4.1-1-6-5.5-1.6-7.7c3.4-1.7,8.8,0,11.9,1.9c0.4,0.2,0.8,0.1,1-0.3l1.6-2.6
		c0.4-0.6,0.2-1.4-0.5-1.8c-4.5-2.4-9.2-3.2-13.9-2.2c-9.3,1.9-11.3,13.3-1.7,16.5c3.2,1.1,5.8,2,7.9,2.6c6.1,1.9,3.9,7.4-1.6,7.5
		c-3.9,0.1-7.5-1-10.9-3.2c-0.3-0.2-0.7-0.1-0.9,0.2L485.7,576.7"/>
	<path vector-effect="non-scaling-stroke" class="st2" d="M517.9,565c-0.5,8.8,6.6,16.3,15.9,16.8c9.3,0.5,17.1-6.2,17.6-15
		c0.5-8.8-6.6-16.3-15.9-16.8C526.3,549.5,518.4,556.2,517.9,565"/>
	<path vector-effect="non-scaling-stroke" class="st2" d="M677,564.6c-0.7,8.8,6.2,16.5,15.4,17.2c9.2,0.7,17.2-5.8,17.9-14.6
		c0.7-8.8-6.2-16.5-15.4-17.2C685.7,549.3,677.7,555.8,677,564.6"/>
	<path vector-effect="non-scaling-stroke" class="st2" d="M567.6,577c-0.4,0-0.7-0.3-0.7-0.7V551c0-0.4-0.3-0.7-0.7-0.7h-3.7
		c-0.4,0-0.7,0.3-0.7,0.7v30c0,0.4,0.3,0.7,0.7,0.7h20.1c0.4,0,0.7-0.3,0.7-0.7v-3.3c0-0.4-0.3-0.7-0.7-0.7H567.6"/>
	<path vector-effect="non-scaling-stroke" class="st2" d="M604.9,581.9c7.8,0,13.1-4.7,13.4-12.6c0.1-3.7,0.2-9.7,0.2-18
		c0-0.5-0.5-1-1-1h-3.3c-0.6,0-1,0.5-1,1c0,7.2,0.1,12.8,0,16.6c0,5.3-3,9.1-8.4,9.1c-5.4,0-8.4-3.8-8.3-9.1c0-3.9,0-9.4,0.1-16.6
		c0-0.6-0.5-1-1-1l-3.3,0c-0.5,0-1,0.4-1,1c0,8.3,0,14.3,0.2,18C591.8,577.2,597.1,581.9,604.9,581.9"/>
	<path vector-effect="non-scaling-stroke" class="st2" d="M666.9,550.9c0-0.3-0.2-0.5-0.5-0.5l-4,0c-0.3,0-0.5,0.2-0.5,0.5l-0.1,30
		c0,0.3,0.2,0.5,0.5,0.5l4,0c0.3,0,0.5-0.2,0.5-0.5L666.9,550.9"/>
	<path vector-effect="non-scaling-stroke" class="st2" d="M732.2,567.5c3.3,4.3,6.9,8.8,10.7,13.4c0.2,0.3,0.5,0.4,0.8,0.5
		c1,0.2,2.2,0.3,3.5,0.2c0.3,0,0.6-0.3,0.6-0.6v-29.9c0-0.5-0.4-0.8-0.8-0.8h-3.5c-0.4,0-0.8,0.4-0.8,0.8v20.8
		c0,0.3-0.4,0.5-0.7,0.2c-0.4-0.5-2.4-3-6-7.7c-3.3-4.3-6.9-8.8-10.7-13.4c-0.2-0.3-0.5-0.4-0.8-0.5c-1-0.2-2.2-0.3-3.5-0.2
		c-0.3,0-0.6,0.3-0.6,0.6v29.9c0,0.5,0.4,0.8,0.8,0.8h3.5c0.4,0,0.8-0.3,0.8-0.8v-20.8c0-0.3,0.4-0.5,0.7-0.2
		C726.7,560.3,728.6,562.9,732.2,567.5"/>
	<path vector-effect="non-scaling-stroke" class="st2" d="M639.5,581.5c1,0,1.6,0,2,0c0.4,0,0.7-0.3,0.7-0.7v-25.1
		c0-0.3,0.3-0.6,0.6-0.6h9.4c0.4,0,0.7-0.3,0.7-0.7v-3.1c0-0.4-0.3-0.8-0.8-0.8c-4,0-8.2,0-12.5,0c-4.4,0-8.5,0-12.5,0
		c-0.4,0-0.8,0.3-0.8,0.8l0,3.1c0,0.4,0.3,0.7,0.7,0.7l9.4,0c0.3,0,0.6,0.3,0.6,0.6l-0.1,25.1c0,0.4,0.3,0.7,0.7,0.7
		C637.8,581.5,638.5,581.5,639.5,581.5"/>
	<path vector-effect="non-scaling-stroke" class="st1" d="M509.1,459v55.1c0,0.1,0.1,0.2,0.2,0.2h18.4c14.7,0,26.6-11.9,26.6-26.6
		v-2.4c0-14.7-11.9-26.6-26.6-26.6h-18.4C509.2,458.8,509.1,458.9,509.1,459"/>
	<path vector-effect="non-scaling-stroke" class="st2" d="M538.3,554.9c-5.9-2-12.3,1.3-14.3,7.2c-2,6,1.1,12.5,7,14.5
		c5.9,2,12.3-1.3,14.3-7.2C547.4,563.4,544.2,556.9,538.3,554.9"/>
	<path vector-effect="non-scaling-stroke" class="st2" d="M696.1,554.5c-6-1.3-12,2.6-13.4,8.8c-1.4,6.2,2.4,12.3,8.4,13.6
		c6,1.3,12-2.6,13.4-8.8C705.8,561.9,702.1,555.8,696.1,554.5"/>
</g>
<path class="st3" d="M1024,0v1024H0V0H1024z M325.9,575.3c-0.6-2.2-0.8-5-0.8-8.4c0.3-14.8,6.9-26.6,17.7-37.4
	c3.7-3.7,8.3-8,13.8-13c0.5-0.4,0.7-1.1,0.5-1.8c-2.3-8.1,4.1-15,12.4-14.4c0.7,0.1,1.5-0.2,2-0.8c1.7-1.8,5.1-5.2,10.4-10.2
	c5-4.8,8.3-8.3,9.8-10.6c9.9-14.7,10.1-35.1-0.8-49.5c-8.5-11.2-22-15.5-34.8-9.6c-2.2,1-5.3,3.5-9.1,7.5
	c-16.1,16.5-35.9,36.3-59.4,59.5c-7.9,7.8-13.3,13.6-13.4,24.7c0,8.3,2.9,15.2,8.7,20.9c2,1.9,6.9,6.8,14.9,14.6
	c0.2,0.2,0.6,0.1,0.6-0.2c0.5-8.4,2.8-16.3,7-23.7c2.2-3.9,7.4-9.9,15.7-18.2c12.1-12,24-23.8,35.7-35.2c0.3-0.3,0.5-0.8,0.4-1.3
	c-3.1-12,13.7-18.4,20-8.8c2.5,3.8,2.7,9.8-0.3,13.6c-2.6,3.3-6.3,4.5-10.8,3.7c-0.3-0.1-0.6,0.1-0.9,0.3
	c-12.9,13.4-26.9,27.5-42.2,42.3c-9.1,8.9-13.3,20.2-12.5,33.8c0.3,5.4,0.7,8.5,4.4,12.3c4.8,4.9,8.2,8.2,10.3,10.1
	C325.4,576.2,326,575.9,325.9,575.3z M488,441.3l0.2,90.5c0,0.1,0.1,0.2,0.2,0.2l41.2-0.1c25.5,0,46.1-19.7,46-43.9v-3.2
	c0-24.2-20.7-43.8-46.2-43.8l-41.2,0.1C488.1,441.1,488,441.2,488,441.3z M617.8,531.6c4.2,0,7.5,0,10,0.1c0.2,0,0.4-0.2,0.4-0.4
	V459c0-0.2,0.2-0.4,0.4-0.4h27.8c0.3,0,0.6-0.3,0.6-0.6v-16.4c0-0.5-0.4-0.8-0.8-0.8c-17,0.1-29.8,0.1-38.4,0.1
	c-8.5,0-21.3,0-38.4-0.1c-0.5,0-0.8,0.4-0.8,0.8v16.4c0,0.3,0.3,0.6,0.6,0.6h27.8c0.2,0,0.4,0.2,0.4,0.4v72.3c0,0.2,0.2,0.4,0.4,0.4
	C610.3,531.7,613.7,531.6,617.8,531.6z M723.8,531.5c0.1,0.1,0.2,0.2,0.3,0.2h23.7c0.3,0,0.5-0.3,0.3-0.6l-30.7-45.9
	c-0.1-0.1-0.1-0.3,0-0.4l28.5-43.3c0.2-0.3,0-0.6-0.3-0.6h-22.3c-0.1,0-0.3,0.1-0.3,0.2l-18.5,29c-0.1,0.2-0.5,0.2-0.6,0l-18.4-29
	c-0.1-0.1-0.2-0.2-0.3-0.2h-23.6c-0.3,0-0.5,0.3-0.3,0.6l29.3,43.7c0.1,0.1,0.1,0.3,0,0.4l-31.2,45.6c-0.2,0.3,0,0.6,0.3,0.6h23.6
	c0.1,0,0.3-0.1,0.3-0.2l19.9-31.2c0.1-0.2,0.5-0.2,0.6,0L723.8,531.5z M409.7,447.4c2.3,13.2-0.2,25.5-7.5,36.9
	c-2.3,3.6-5.9,7.7-10.8,12.3c-4.7,4.4-8.7,8.2-12,11.4c-0.5,0.4-0.6,1.1-0.4,1.7c1.1,3.2,0.7,6.2-1.4,9.2c-2.7,4-6.6,5.5-11.7,4.6
	c-0.3-0.1-0.7,0-0.9,0.3c-2.6,2.8-6.1,6.3-10.5,10.4c-5.1,4.8-8.5,8.5-10.1,10.8c-5.6,8.3-8.1,17.8-7.6,28.4
	c0.5,9.5,4.1,17.6,10.7,24.4c8,8.2,17.4,10.7,28.2,7.5c4-1.2,7.4-3.2,10.3-6.1c8.4-8.4,31.2-31.3,68.4-68.8
	c8.4-8.4,9.8-20.9,4.7-31.5c-1.3-2.6-4.5-6.4-9.9-11.5c-1.8-1.7-5.5-5.3-10.9-10.8c-0.3-0.3-0.9-0.1-0.9,0.3
	c-0.7,10.1-3.7,19.1-9,27.2c-2,3-8,9.4-18,19.2c-15.8,15.4-26.3,25.7-31.5,30.8c-0.3,0.3-0.5,0.8-0.4,1.3
	c3.9,14.4-17.3,19.7-21.2,5.8c-1.7-6.1,2.4-13.5,9.1-13.7c1.5,0,2.5-0.1,3.1-0.2c0.3,0,0.7-0.2,0.9-0.5
	c12.5-12.8,26.5-26.8,42.3-42.1c10.6-10.3,15.3-25.5,12.2-39.9c-0.4-2.1-1.5-4.1-2.9-5.5c-2.6-2.7-6.6-6.8-12-12.2
	C410,447,409.6,447.1,409.7,447.4z M485.7,576.7c-0.2,0.4-0.2,0.9,0.2,1.1c5.6,4.3,11.8,5.3,18.5,3.1c6.5-2.2,8.5-11.8,1.5-15.1
	c-1.8-0.8-5-1.8-9.8-2.9c-4.1-1-6-5.5-1.6-7.7c3.4-1.7,8.8,0,11.9,1.9c0.4,0.2,0.8,0.1,1-0.3l1.6-2.6c0.4-0.6,0.2-1.4-0.5-1.8
	c-4.5-2.4-9.2-3.2-13.9-2.2c-9.3,1.9-11.3,13.3-1.7,16.5c3.2,1.1,5.8,2,7.9,2.6c6.1,1.9,3.9,7.4-1.6,7.5c-3.9,0.1-7.5-1-10.9-3.2
	c-0.3-0.2-0.7-0.1-0.9,0.2L485.7,576.7z M517.9,565c-0.5,8.8,6.6,16.3,15.9,16.8c9.3,0.5,17.1-6.2,17.6-15
	c0.5-8.8-6.6-16.3-15.9-16.8C526.3,549.5,518.4,556.2,517.9,565z M677,564.6c-0.7,8.8,6.2,16.5,15.4,17.2
	c9.2,0.7,17.2-5.8,17.9-14.6c0.7-8.8-6.2-16.5-15.4-17.2C685.7,549.3,677.7,555.8,677,564.6z M567.6,577c-0.4,0-0.7-0.3-0.7-0.7V551
	c0-0.4-0.3-0.7-0.7-0.7h-3.7c-0.4,0-0.7,0.3-0.7,0.7v30c0,0.4,0.3,0.7,0.7,0.7h20.1c0.4,0,0.7-0.3,0.7-0.7v-3.3
	c0-0.4-0.3-0.7-0.7-0.7H567.6z M604.9,581.9c7.8,0,13.1-4.7,13.4-12.6c0.1-3.7,0.2-9.7,0.2-18c0-0.5-0.5-1-1-1h-3.3
	c-0.6,0-1,0.5-1,1c0,7.2,0.1,12.8,0,16.6c0,5.3-3,9.1-8.4,9.1c-5.4,0-8.4-3.8-8.3-9.1c0-3.9,0-9.4,0.1-16.6c0-0.6-0.5-1-1-1l-3.3,0
	c-0.5,0-1,0.4-1,1c0,8.3,0,14.3,0.2,18C591.8,577.2,597.1,581.9,604.9,581.9z M666.9,550.9c0-0.3-0.2-0.5-0.5-0.5l-4,0
	c-0.3,0-0.5,0.2-0.5,0.5l-0.1,30c0,0.3,0.2,0.5,0.5,0.5l4,0c0.3,0,0.5-0.2,0.5-0.5L666.9,550.9z M732.2,567.5
	c3.3,4.3,6.9,8.8,10.7,13.4c0.2,0.3,0.5,0.4,0.8,0.5c1,0.2,2.2,0.3,3.5,0.2c0.3,0,0.6-0.3,0.6-0.6v-29.9c0-0.5-0.4-0.8-0.8-0.8h-3.5
	c-0.4,0-0.8,0.4-0.8,0.8v20.8c0,0.3-0.4,0.5-0.7,0.2c-0.4-0.5-2.4-3-6-7.7c-3.3-4.3-6.9-8.8-10.7-13.4c-0.2-0.3-0.5-0.4-0.8-0.5
	c-1-0.2-2.2-0.3-3.5-0.2c-0.3,0-0.6,0.3-0.6,0.6v29.9c0,0.5,0.4,0.8,0.8,0.8h3.5c0.4,0,0.8-0.3,0.8-0.8v-20.8c0-0.3,0.4-0.5,0.7-0.2
	C726.7,560.3,728.6,562.9,732.2,567.5z M639.5,581.5c1,0,1.6,0,2,0c0.4,0,0.7-0.3,0.7-0.7v-25.1c0-0.3,0.3-0.6,0.6-0.6h9.4
	c0.4,0,0.7-0.3,0.7-0.7v-3.1c0-0.4-0.3-0.8-0.8-0.8c-4,0-8.2,0-12.5,0c-4.4,0-8.5,0-12.5,0c-0.4,0-0.8,0.3-0.8,0.8l0,3.1
	c0,0.4,0.3,0.7,0.7,0.7l9.4,0c0.3,0,0.6,0.3,0.6,0.6l-0.1,25.1c0,0.4,0.3,0.7,0.7,0.7C637.8,581.5,638.5,581.5,639.5,581.5z"/>
<path class="st4" d="M325.9,575.3c0.1,0.5-0.5,0.9-0.9,0.5c-2.1-1.9-5.5-5.3-10.3-10.1c-3.7-3.8-4.1-6.8-4.4-12.3
	c-0.8-13.6,3.4-24.9,12.5-33.8c15.2-14.9,29.3-29,42.2-42.3c0.2-0.2,0.6-0.3,0.9-0.3c4.6,0.8,8.2-0.5,10.8-3.7
	c3.1-3.8,2.9-9.8,0.3-13.6c-6.3-9.6-23.1-3.3-20,8.8c0.1,0.5,0,0.9-0.4,1.3c-11.7,11.4-23.6,23.1-35.7,35.2
	c-8.3,8.3-13.6,14.3-15.7,18.2c-4.2,7.5-6.5,15.4-7,23.7c0,0.3-0.4,0.5-0.6,0.2c-8-7.8-12.9-12.7-14.9-14.6
	c-5.9-5.7-8.8-12.7-8.7-20.9c0.1-11.1,5.5-16.9,13.4-24.7c23.5-23.2,43.3-43,59.4-59.5c3.9-4,6.9-6.5,9.1-7.5
	c12.8-5.8,26.3-1.6,34.8,9.6c10.9,14.4,10.7,34.8,0.8,49.5c-1.5,2.3-4.8,5.8-9.8,10.6c-5.2,5-8.7,8.4-10.4,10.2
	c-0.5,0.6-1.2,0.8-2,0.8c-8.3-0.7-14.7,6.3-12.4,14.4c0.2,0.6,0,1.3-0.5,1.8c-5.5,5-10.1,9.3-13.8,13
	c-10.8,10.8-17.4,22.6-17.7,37.4C325.1,570.3,325.3,573.1,325.9,575.3z"/>
<path class="st5" d="M488,441.3c0-0.1,0.1-0.2,0.2-0.2l41.2-0.1c25.5,0,46.1,19.6,46.2,43.8v3.2c0,24.2-20.6,43.9-46,43.9l-41.2,0.1
	c-0.1,0-0.2-0.1-0.2-0.2L488,441.3z M509.1,459v55.1c0,0.1,0.1,0.2,0.2,0.2h18.4c14.7,0,26.6-11.9,26.6-26.6v-2.4
	c0-14.7-11.9-26.6-26.6-26.6h-18.4C509.2,458.8,509.1,458.9,509.1,459z"/>
<path class="st5" d="M617.8,440.9c8.5,0,21.3,0,38.4-0.1c0.5,0,0.8,0.4,0.8,0.8v16.4c0,0.3-0.3,0.6-0.6,0.6h-27.8
	c-0.2,0-0.4,0.2-0.4,0.4v72.3c0,0.2-0.2,0.4-0.4,0.4c-2.5-0.1-5.8-0.1-10-0.1c-4.2,0-7.5,0-10,0.1c-0.2,0-0.4-0.2-0.4-0.4V459
	c0-0.2-0.2-0.4-0.4-0.4h-27.8c-0.3,0-0.6-0.3-0.6-0.6v-16.4c0-0.5,0.4-0.8,0.8-0.8C596.5,440.9,609.3,440.9,617.8,440.9z"/>
<path class="st5" d="M723.8,531.5l-19.7-31c-0.1-0.2-0.5-0.2-0.6,0l-19.9,31.2c-0.1,0.1-0.2,0.2-0.3,0.2h-23.6
	c-0.3,0-0.5-0.3-0.3-0.6l31.2-45.6c0.1-0.1,0.1-0.3,0-0.4l-29.3-43.7c-0.2-0.3,0-0.6,0.3-0.6h23.6c0.1,0,0.3,0.1,0.3,0.2l18.4,29
	c0.2,0.2,0.5,0.2,0.6,0l18.5-29c0.1-0.1,0.2-0.2,0.3-0.2h22.3c0.3,0,0.5,0.3,0.3,0.6l-28.5,43.3c-0.1,0.1-0.1,0.3,0,0.4l30.7,45.9
	c0.2,0.3,0,0.6-0.3,0.6h-23.7C724,531.7,723.8,531.6,723.8,531.5z"/>
<path class="st5" d="M410.2,447.1c5.4,5.5,9.4,9.6,12,12.2c1.4,1.4,2.4,3.5,2.9,5.5c3.1,14.5-1.6,29.6-12.2,39.9
	c-15.7,15.3-29.8,29.3-42.3,42.1c-0.3,0.3-0.6,0.4-0.9,0.5c-0.6,0.1-1.6,0.1-3.1,0.2c-6.8,0.2-10.9,7.6-9.1,13.7
	c4,14,25.1,8.7,21.2-5.8c-0.1-0.5,0-0.9,0.4-1.3c5.2-5.1,15.7-15.3,31.5-30.8c10.1-9.8,16.1-16.3,18-19.2c5.3-8,8.3-17.1,9-27.2
	c0-0.5,0.6-0.7,0.9-0.3c5.5,5.5,9.1,9.1,10.9,10.8c5.3,5.1,8.6,8.9,9.9,11.5c5.1,10.6,3.7,23.1-4.7,31.5
	c-37.3,37.5-60.1,60.4-68.4,68.8c-2.9,2.9-6.4,5-10.3,6.1c-10.8,3.2-20.2,0.7-28.2-7.5c-6.6-6.8-10.2-15-10.7-24.4
	c-0.6-10.6,2-20.1,7.6-28.4c1.6-2.4,5-6,10.1-10.8c4.4-4.2,7.9-7.6,10.5-10.4c0.2-0.3,0.6-0.4,0.9-0.3c5.1,0.9,9-0.6,11.7-4.6
	c2-3,2.5-6,1.4-9.2c-0.2-0.6-0.1-1.2,0.4-1.7c3.3-3.2,7.3-7,12-11.4c4.9-4.7,8.5-8.8,10.8-12.3c7.3-11.4,9.8-23.7,7.5-36.9
	C409.6,447.1,410,447,410.2,447.1z"/>
<path class="st3" d="M509.1,459c0-0.1,0.1-0.2,0.2-0.2h18.4c14.7,0,26.6,11.9,26.6,26.6v2.4c0,14.7-11.9,26.6-26.6,26.6h-18.4
	c-0.1,0-0.2-0.1-0.2-0.2V459z"/>
<path class="st6" d="M488.4,573.8c3.3,2.3,6.9,3.3,10.9,3.2c5.4-0.2,7.6-5.7,1.6-7.5c-2-0.6-4.7-1.5-7.9-2.6
	c-9.6-3.3-7.6-14.6,1.7-16.5c4.8-1,9.4-0.2,13.9,2.2c0.6,0.4,0.9,1.2,0.5,1.8l-1.6,2.6c-0.2,0.3-0.7,0.5-1,0.3
	c-3.1-1.9-8.5-3.6-11.9-1.9c-4.4,2.2-2.5,6.7,1.6,7.7c4.8,1.1,8.1,2.1,9.8,2.9c7,3.3,5.1,12.9-1.5,15.1c-6.7,2.2-12.9,1.2-18.5-3.1
	c-0.4-0.3-0.4-0.8-0.2-1.1l1.8-2.8C487.7,573.7,488.1,573.6,488.4,573.8z"/>
<path class="st6" d="M517.9,565c0.5-8.8,8.4-15.5,17.6-15c9.3,0.5,16.4,8,15.9,16.8c-0.5,8.8-8.4,15.5-17.6,15
	C524.5,581.3,517.4,573.8,517.9,565z M538.3,554.9c-5.9-2-12.3,1.3-14.3,7.2c-2,6,1.1,12.5,7,14.5c5.9,2,12.3-1.3,14.3-7.2
	C547.4,563.4,544.2,556.9,538.3,554.9z"/>
<path class="st6" d="M677,564.6c0.7-8.8,8.7-15.3,17.9-14.6c9.2,0.7,16.1,8.4,15.4,17.2c-0.7,8.8-8.7,15.3-17.9,14.6
	C683.2,581.1,676.3,573.4,677,564.6z M696.1,554.5c-6-1.3-12,2.6-13.4,8.8c-1.4,6.2,2.4,12.3,8.4,13.6c6,1.3,12-2.6,13.4-8.8
	C705.8,561.9,702.1,555.8,696.1,554.5z"/>
<path class="st6" d="M567.6,577h15.1c0.4,0,0.7,0.3,0.7,0.7v3.3c0,0.4-0.3,0.7-0.7,0.7h-20.1c-0.4,0-0.7-0.3-0.7-0.7v-30
	c0-0.4,0.3-0.7,0.7-0.7h3.7c0.4,0,0.7,0.3,0.7,0.7v25.3C567,576.7,567.3,577,567.6,577z"/>
<path class="st6" d="M604.9,577.1c5.4,0,8.4-3.8,8.4-9.1c0-3.9,0-9.4,0-16.6c0-0.6,0.5-1,1-1h3.3c0.5,0,1,0.4,1,1
	c0,8.3-0.1,14.3-0.2,18c-0.3,7.9-5.7,12.6-13.4,12.6c-7.8,0-13.1-4.7-13.4-12.6c-0.1-3.7-0.2-9.7-0.2-18c0-0.5,0.5-1,1-1l3.3,0
	c0.6,0,1,0.5,1,1c-0.1,7.2-0.1,12.8-0.1,16.6C596.6,573.3,599.5,577.1,604.9,577.1z"/>
<path class="st6" d="M662.4,550.4l4,0c0.3,0,0.5,0.2,0.5,0.5l-0.1,30c0,0.3-0.2,0.5-0.5,0.5l-4,0c-0.3,0-0.5-0.2-0.5-0.5l0.1-30
	C661.9,550.6,662.1,550.4,662.4,550.4z"/>
<path class="st6" d="M732.2,567.5c-3.6-4.7-5.6-7.2-6-7.7c-0.2-0.3-0.7-0.1-0.7,0.2v20.8c0,0.5-0.4,0.8-0.8,0.8h-3.5
	c-0.5,0-0.8-0.4-0.8-0.8v-29.9c0-0.3,0.3-0.6,0.6-0.6c1.4-0.1,2.6,0,3.5,0.2c0.3,0.1,0.6,0.3,0.8,0.5c3.8,4.7,7.4,9.2,10.7,13.4
	c3.6,4.6,5.6,7.2,6,7.7c0.2,0.3,0.7,0.1,0.7-0.2v-20.8c0-0.4,0.4-0.8,0.8-0.8h3.5c0.5,0,0.8,0.4,0.8,0.8V581c0,0.3-0.3,0.6-0.6,0.6
	c-1.4,0.1-2.6,0-3.5-0.2c-0.3-0.1-0.6-0.3-0.8-0.5C739.1,576.3,735.5,571.8,732.2,567.5z"/>
<path class="st6" d="M639.5,550.5c4.3,0,8.5,0,12.5,0c0.4,0,0.8,0.3,0.8,0.8v3.1c0,0.4-0.3,0.7-0.7,0.7h-9.4c-0.3,0-0.6,0.3-0.6,0.6
	v25.1c0,0.4-0.3,0.7-0.7,0.7c-0.3,0-1,0-2,0c-1,0-1.6,0-1.9,0c-0.4,0-0.7-0.3-0.7-0.7l0.1-25.1c0-0.3-0.3-0.6-0.6-0.6l-9.4,0
	c-0.4,0-0.7-0.3-0.7-0.7l0-3.1c0-0.4,0.3-0.8,0.8-0.8C631,550.4,635.2,550.5,639.5,550.5z"/>
<ellipse transform="matrix(0.2181 -0.9759 0.9759 0.2181 -9.7998 1119.1278)" class="st3" cx="693.5" cy="565.7" rx="11.5" ry="11.1"/>
<ellipse transform="matrix(0.3206 -0.9472 0.9472 0.3206 -172.6837 890.8421)" class="st3" cx="534.7" cy="565.8" rx="11.5" ry="11.3"/>
</svg>
